<svg width="576" height="177" viewBox="0 0 576 177" fill="none" xmlns="http://www.w3.org/2000/svg">
<path d="M41 176.2C28.2 176.2 18.2 174.2 11 170.2C3.93333 166.2 0.4 160.867 0.4 154.2C0.4 147.667 2.66667 142.667 7.2 139.2C11.7333 135.6 16.6 133.8 21.8 133.8C32.7333 133.8 41.0667 139.267 46.8 150.2C53.6 149.133 59.0667 146.2 63.2 141.4C67.4667 136.467 69.6 130.867 69.6 124.6C69.6 118.333 67.2 112.933 62.4 108.4C57.6 103.733 50.4 101.4 40.8 101.4C36 101.4 30.5333 102.067 24.4 103.4C20.5333 103.133 18.6 101.6 18.6 98.8L26 39.6C21.0667 34 18.6 28.4667 18.6 23C18.6 17.4 20.2 13 23.4 9.79999C26.6 6.59999 31 4.99999 36.6 4.99999C45.8 4.99999 53.1333 9.66666 58.6 19C65.4 19 74.5333 17.8 86 15.4C97.4667 13 108.067 10 117.8 6.4C118.6 10.4 119 14.7333 119 19.4C119 42.3333 106.267 53.8 80.8 53.8C79.4667 53.8 72.2667 53.4 59.2 52.6L57 75.4C72.4667 76.2 85.9333 80.1333 97.4 87.2C103.267 90.8 107.933 95.6 111.4 101.6C114.867 107.6 116.6 114.467 116.6 122.2C116.6 137.4 109.533 150.2 95.4 160.6C81.4 171 63.2667 176.2 41 176.2Z" fill="#F3F4F6"/>
<path d="M211.353 117.2L204.353 97C197.42 97 190.42 95.9333 183.353 93.8C181.886 102.333 181.153 108.467 181.153 112.2C181.153 125.133 183.153 134.8 187.153 141.2C179.153 147.2 170.82 150.2 162.153 150.2C153.486 150.2 147.286 147.733 143.553 142.8C139.82 137.733 137.953 130.267 137.953 120.4C137.953 110.4 142.153 82.2 150.553 35.8L139.953 14.4C154.886 4.79999 168.62 -4.76837e-06 181.153 -4.76837e-06C190.753 -4.76837e-06 198.153 1.99999 203.353 5.99999C213.353 1.99999 222.353 -4.76837e-06 230.353 -4.76837e-06C242.62 -4.76837e-06 252.353 4.13333 259.553 12.4C266.753 20.6667 270.353 30.6 270.353 42.2C270.353 50.8667 268.153 59.2667 263.753 67.4C259.353 75.4 252.886 81.9333 244.353 87C248.886 99.9333 253.953 111.067 259.553 120.4C265.286 129.733 270.953 135.933 276.553 139C273.753 141.933 269.42 144.467 263.553 146.6C257.82 148.867 252.62 150 247.953 150C238.886 150 231.62 147.733 226.153 143.2C220.686 138.533 215.753 129.867 211.353 117.2ZM192.153 72C202.82 72 211.086 69.2667 216.953 63.8C222.953 58.3333 225.953 52.4667 225.953 46.2C225.953 39.9333 224.22 34.9333 220.753 31.2C217.286 27.4667 212.353 25.6 205.953 25.6C202.486 25.6 199.02 26.0667 195.553 27C191.286 52.4667 188.62 67.4 187.553 71.8C188.486 71.9333 190.02 72 192.153 72ZM277.633 83.8C277.633 58.4667 284.699 38.2 298.833 23C312.966 7.66666 332.299 -4.76837e-06 356.833 -4.76837e-06C364.699 -4.76837e-06 370.299 1.59999 373.633 4.79999C377.099 7.86666 378.833 12.6667 378.833 19.2C378.833 20.1333 378.699 21.9333 378.433 24.6C383.366 20.6 388.833 18.6 394.833 18.6C402.966 18.6 409.899 22.2667 415.633 29.6C421.499 36.8 424.433 47.2667 424.433 61C424.433 74.7333 422.233 87.3333 417.833 98.8C413.433 110.267 407.566 119.667 400.233 127C393.033 134.333 384.766 140 375.433 144C366.233 148 356.699 150 346.833 150C325.499 150 308.633 143.933 296.233 131.8C283.833 119.533 277.633 103.533 277.633 83.8ZM377.433 93.2C368.899 82.8 364.633 71.6 364.633 59.6C364.633 47.6 367.299 37.9333 372.633 30.6C370.233 30.2 367.833 30 365.433 30C355.966 30 347.766 32.8667 340.833 38.6C327.766 49.2667 321.233 64.0667 321.233 83C321.233 93.8 323.633 102.8 328.433 110C333.233 117.2 339.899 120.8 348.433 120.8C354.966 120.8 360.899 118.267 366.233 113.2C371.699 108 375.433 101.333 377.433 93.2ZM494.716 79.8L494.116 113.4H499.316C506.782 97.5333 513.649 80.6 519.916 62.6C526.182 44.4667 529.316 30.6667 529.316 21.2C529.316 17.4667 528.582 13.8667 527.116 10.4C537.249 3.46666 546.582 -4.76837e-06 555.116 -4.76837e-06C568.449 -4.76837e-06 575.116 7.53333 575.116 22.6C575.116 30.0667 573.049 39.5333 568.916 51C564.916 62.3333 558.916 76.6 550.916 93.8C542.916 110.867 538.649 120.067 538.116 121.4L540.916 132.4C534.782 137.333 526.916 141.533 517.316 145C507.716 148.333 497.116 150 485.516 150C473.916 150 465.316 148.133 459.716 144.4C454.116 140.667 451.316 134.4 451.316 125.6L451.516 88.8C451.516 58.2667 447.782 36.7333 440.316 24.2C436.849 18.4667 432.582 13.8667 427.516 10.4C436.582 3.46666 446.982 -4.76837e-06 458.716 -4.76837e-06C469.382 -4.76837e-06 477.316 4.19999 482.516 12.6C487.716 20.8667 491.116 30.8 492.716 42.4C494.049 52.9333 494.716 65.4 494.716 79.8Z" fill="#EA8208"/>
</svg>
